<mxfile host="app.diagrams.net" modified="2024-05-01T18:54:32.288Z" agent="Mozilla/5.0 (Windows NT 10.0; Win64; x64) AppleWebKit/537.36 (KHTML, like Gecko) Chrome/124.0.0.0 Safari/537.36" etag="YueoqVerM_ZzX2QViqS8" version="24.3.1" type="github">
  <diagram id="C5RBs43oDa-KdzZeNtuy" name="Page-1">
    <mxGraphModel dx="880" dy="460" grid="1" gridSize="10" guides="1" tooltips="1" connect="1" arrows="1" fold="1" page="1" pageScale="1" pageWidth="827" pageHeight="1169" math="0" shadow="0">
      <root>
        <mxCell id="WIyWlLk6GJQsqaUBKTNV-0" />
        <mxCell id="WIyWlLk6GJQsqaUBKTNV-1" parent="WIyWlLk6GJQsqaUBKTNV-0" />
        <mxCell id="WIyWlLk6GJQsqaUBKTNV-3" value="Pedido de Ventas&lt;div&gt;(Asesor / Vendedor)&lt;/div&gt;" style="rounded=1;whiteSpace=wrap;html=1;fontSize=12;glass=0;strokeWidth=1;shadow=0;" parent="WIyWlLk6GJQsqaUBKTNV-1" vertex="1">
          <mxGeometry x="340" y="40" width="120" height="40" as="geometry" />
        </mxCell>
        <mxCell id="LbvMlj1gCTwGpWhYF-W6-8" style="edgeStyle=orthogonalEdgeStyle;rounded=0;orthogonalLoop=1;jettySize=auto;html=1;exitX=0.5;exitY=1;exitDx=0;exitDy=0;entryX=0.5;entryY=0;entryDx=0;entryDy=0;" edge="1" parent="WIyWlLk6GJQsqaUBKTNV-1" source="LbvMlj1gCTwGpWhYF-W6-2" target="LbvMlj1gCTwGpWhYF-W6-6">
          <mxGeometry relative="1" as="geometry" />
        </mxCell>
        <mxCell id="LbvMlj1gCTwGpWhYF-W6-2" value="Crédito" style="rounded=0;whiteSpace=wrap;html=1;" vertex="1" parent="WIyWlLk6GJQsqaUBKTNV-1">
          <mxGeometry x="440" y="100" width="120" height="40" as="geometry" />
        </mxCell>
        <mxCell id="LbvMlj1gCTwGpWhYF-W6-48" style="edgeStyle=orthogonalEdgeStyle;rounded=0;orthogonalLoop=1;jettySize=auto;html=1;exitX=0.5;exitY=1;exitDx=0;exitDy=0;entryX=0.5;entryY=0;entryDx=0;entryDy=0;" edge="1" parent="WIyWlLk6GJQsqaUBKTNV-1" source="LbvMlj1gCTwGpWhYF-W6-4" target="LbvMlj1gCTwGpWhYF-W6-31">
          <mxGeometry relative="1" as="geometry" />
        </mxCell>
        <mxCell id="LbvMlj1gCTwGpWhYF-W6-4" value="Contado" style="rounded=0;whiteSpace=wrap;html=1;" vertex="1" parent="WIyWlLk6GJQsqaUBKTNV-1">
          <mxGeometry x="250" y="100" width="120" height="40" as="geometry" />
        </mxCell>
        <mxCell id="LbvMlj1gCTwGpWhYF-W6-18" style="edgeStyle=orthogonalEdgeStyle;rounded=0;orthogonalLoop=1;jettySize=auto;html=1;exitX=1;exitY=0.5;exitDx=0;exitDy=0;" edge="1" parent="WIyWlLk6GJQsqaUBKTNV-1" source="LbvMlj1gCTwGpWhYF-W6-6">
          <mxGeometry relative="1" as="geometry">
            <mxPoint x="600" y="195" as="targetPoint" />
          </mxGeometry>
        </mxCell>
        <mxCell id="LbvMlj1gCTwGpWhYF-W6-47" style="edgeStyle=orthogonalEdgeStyle;rounded=0;orthogonalLoop=1;jettySize=auto;html=1;exitX=0;exitY=0.5;exitDx=0;exitDy=0;" edge="1" parent="WIyWlLk6GJQsqaUBKTNV-1" source="LbvMlj1gCTwGpWhYF-W6-6">
          <mxGeometry relative="1" as="geometry">
            <mxPoint x="380" y="195" as="targetPoint" />
          </mxGeometry>
        </mxCell>
        <mxCell id="LbvMlj1gCTwGpWhYF-W6-6" value="Verifica Cobranzas" style="rhombus;whiteSpace=wrap;html=1;" vertex="1" parent="WIyWlLk6GJQsqaUBKTNV-1">
          <mxGeometry x="455" y="160" width="90" height="70" as="geometry" />
        </mxCell>
        <mxCell id="LbvMlj1gCTwGpWhYF-W6-10" style="edgeStyle=orthogonalEdgeStyle;rounded=0;orthogonalLoop=1;jettySize=auto;html=1;exitX=1;exitY=1;exitDx=0;exitDy=0;entryX=0.358;entryY=-0.025;entryDx=0;entryDy=0;entryPerimeter=0;" edge="1" parent="WIyWlLk6GJQsqaUBKTNV-1" source="WIyWlLk6GJQsqaUBKTNV-3" target="LbvMlj1gCTwGpWhYF-W6-2">
          <mxGeometry relative="1" as="geometry" />
        </mxCell>
        <mxCell id="LbvMlj1gCTwGpWhYF-W6-13" style="edgeStyle=orthogonalEdgeStyle;rounded=0;orthogonalLoop=1;jettySize=auto;html=1;exitX=0;exitY=1;exitDx=0;exitDy=0;entryX=0.592;entryY=-0.1;entryDx=0;entryDy=0;entryPerimeter=0;" edge="1" parent="WIyWlLk6GJQsqaUBKTNV-1" source="WIyWlLk6GJQsqaUBKTNV-3" target="LbvMlj1gCTwGpWhYF-W6-4">
          <mxGeometry relative="1" as="geometry">
            <Array as="points">
              <mxPoint x="321" y="80" />
            </Array>
          </mxGeometry>
        </mxCell>
        <mxCell id="LbvMlj1gCTwGpWhYF-W6-21" value="No Aprueba" style="text;html=1;align=center;verticalAlign=middle;whiteSpace=wrap;rounded=0;" vertex="1" parent="WIyWlLk6GJQsqaUBKTNV-1">
          <mxGeometry x="540" y="160" width="60" height="30" as="geometry" />
        </mxCell>
        <mxCell id="LbvMlj1gCTwGpWhYF-W6-24" value="Si Aprueba" style="text;html=1;align=center;verticalAlign=middle;whiteSpace=wrap;rounded=0;" vertex="1" parent="WIyWlLk6GJQsqaUBKTNV-1">
          <mxGeometry x="410" y="210" width="60" height="30" as="geometry" />
        </mxCell>
        <mxCell id="LbvMlj1gCTwGpWhYF-W6-25" value="Cancela Pedido" style="rounded=0;whiteSpace=wrap;html=1;" vertex="1" parent="WIyWlLk6GJQsqaUBKTNV-1">
          <mxGeometry x="600" y="175" width="120" height="40" as="geometry" />
        </mxCell>
        <mxCell id="LbvMlj1gCTwGpWhYF-W6-49" style="edgeStyle=orthogonalEdgeStyle;rounded=0;orthogonalLoop=1;jettySize=auto;html=1;exitX=0.5;exitY=1;exitDx=0;exitDy=0;entryX=0.5;entryY=0;entryDx=0;entryDy=0;" edge="1" parent="WIyWlLk6GJQsqaUBKTNV-1" source="LbvMlj1gCTwGpWhYF-W6-31" target="LbvMlj1gCTwGpWhYF-W6-36">
          <mxGeometry relative="1" as="geometry" />
        </mxCell>
        <mxCell id="LbvMlj1gCTwGpWhYF-W6-31" value="Completa Pedido" style="rounded=0;whiteSpace=wrap;html=1;" vertex="1" parent="WIyWlLk6GJQsqaUBKTNV-1">
          <mxGeometry x="250" y="170" width="120" height="40" as="geometry" />
        </mxCell>
        <mxCell id="LbvMlj1gCTwGpWhYF-W6-40" style="edgeStyle=orthogonalEdgeStyle;rounded=0;orthogonalLoop=1;jettySize=auto;html=1;exitX=0;exitY=0.5;exitDx=0;exitDy=0;entryX=1;entryY=0.5;entryDx=0;entryDy=0;" edge="1" parent="WIyWlLk6GJQsqaUBKTNV-1" source="LbvMlj1gCTwGpWhYF-W6-36" target="LbvMlj1gCTwGpWhYF-W6-37">
          <mxGeometry relative="1" as="geometry" />
        </mxCell>
        <mxCell id="LbvMlj1gCTwGpWhYF-W6-36" value="Genera Factura&amp;nbsp;&lt;div&gt;CxC&lt;/div&gt;" style="rounded=0;whiteSpace=wrap;html=1;" vertex="1" parent="WIyWlLk6GJQsqaUBKTNV-1">
          <mxGeometry x="250" y="240" width="120" height="50" as="geometry" />
        </mxCell>
        <mxCell id="LbvMlj1gCTwGpWhYF-W6-37" value="Genera Entrega Cliente&lt;div&gt;(Salida Mercancía Sistema)&lt;/div&gt;" style="rounded=0;whiteSpace=wrap;html=1;" vertex="1" parent="WIyWlLk6GJQsqaUBKTNV-1">
          <mxGeometry x="60" y="240" width="160" height="50" as="geometry" />
        </mxCell>
        <mxCell id="LbvMlj1gCTwGpWhYF-W6-55" style="edgeStyle=orthogonalEdgeStyle;rounded=0;orthogonalLoop=1;jettySize=auto;html=1;exitX=1;exitY=0.5;exitDx=0;exitDy=0;entryX=0;entryY=0.5;entryDx=0;entryDy=0;" edge="1" parent="WIyWlLk6GJQsqaUBKTNV-1" source="LbvMlj1gCTwGpWhYF-W6-50" target="LbvMlj1gCTwGpWhYF-W6-51">
          <mxGeometry relative="1" as="geometry" />
        </mxCell>
        <mxCell id="LbvMlj1gCTwGpWhYF-W6-50" value="Guía Despacho" style="rounded=0;whiteSpace=wrap;html=1;" vertex="1" parent="WIyWlLk6GJQsqaUBKTNV-1">
          <mxGeometry x="190" y="320" width="120" height="50" as="geometry" />
        </mxCell>
        <mxCell id="LbvMlj1gCTwGpWhYF-W6-51" value="Salida Mercancía Almacén Físico" style="rounded=0;whiteSpace=wrap;html=1;" vertex="1" parent="WIyWlLk6GJQsqaUBKTNV-1">
          <mxGeometry x="335" y="320" width="120" height="50" as="geometry" />
        </mxCell>
        <mxCell id="LbvMlj1gCTwGpWhYF-W6-52" value="Entrega de Mercancía Cliente" style="rounded=1;whiteSpace=wrap;html=1;fontSize=12;glass=0;strokeWidth=1;shadow=0;" vertex="1" parent="WIyWlLk6GJQsqaUBKTNV-1">
          <mxGeometry x="354" y="400" width="120" height="40" as="geometry" />
        </mxCell>
        <mxCell id="LbvMlj1gCTwGpWhYF-W6-54" style="edgeStyle=orthogonalEdgeStyle;rounded=0;orthogonalLoop=1;jettySize=auto;html=1;exitX=0.25;exitY=1;exitDx=0;exitDy=0;entryX=0.45;entryY=-0.1;entryDx=0;entryDy=0;entryPerimeter=0;" edge="1" parent="WIyWlLk6GJQsqaUBKTNV-1" source="LbvMlj1gCTwGpWhYF-W6-36" target="LbvMlj1gCTwGpWhYF-W6-50">
          <mxGeometry relative="1" as="geometry" />
        </mxCell>
        <mxCell id="LbvMlj1gCTwGpWhYF-W6-56" style="edgeStyle=orthogonalEdgeStyle;rounded=0;orthogonalLoop=1;jettySize=auto;html=1;exitX=0.5;exitY=1;exitDx=0;exitDy=0;entryX=0.367;entryY=0.025;entryDx=0;entryDy=0;entryPerimeter=0;" edge="1" parent="WIyWlLk6GJQsqaUBKTNV-1" source="LbvMlj1gCTwGpWhYF-W6-51" target="LbvMlj1gCTwGpWhYF-W6-52">
          <mxGeometry relative="1" as="geometry" />
        </mxCell>
      </root>
    </mxGraphModel>
  </diagram>
</mxfile>
